<svg width="16" height="16" viewBox="0 0 16 16" fill="none" xmlns="http://www.w3.org/2000/svg">
<rect width="16" height="16" rx="4" fill="#F25A68"/>
<path d="M8.87891 7.24805C9.53125 7.31836 10.0527 7.56445 10.4434 7.98633C10.8379 8.4043 11.0352 8.9375 11.0352 9.58594C11.0352 10.082 10.9141 10.5234 10.6719 10.9102C10.4336 11.293 10.1016 11.5898 9.67578 11.8008C9.25391 12.0117 8.77539 12.1172 8.24023 12.1172C7.71289 12.1172 7.23828 12.0117 6.81641 11.8008C6.39844 11.5898 6.07227 11.2891 5.83789 10.8984C5.60742 10.5039 5.49609 10.0508 5.50391 9.53906H6.85742C6.85742 9.94531 6.98828 10.2754 7.25 10.5293C7.51172 10.7832 7.84961 10.9102 8.26367 10.9102C8.66992 10.9102 9.00586 10.7871 9.27148 10.541C9.53711 10.291 9.66992 9.96094 9.66992 9.55078C9.66992 9.16797 9.55273 8.86523 9.31836 8.64258C9.08789 8.41602 8.77734 8.28711 8.38672 8.25586C8.25 8.24023 7.97656 8.23242 7.56641 8.23242H7.12109V7.30664L8.96094 5.49609H5.96094V4.30664H10.666V5.47266L8.87891 7.24805Z" fill="white"/>
</svg>
